<?xml version="1.0" encoding="UTF-8" standalone="no"?>
<!DOCTYPE svg PUBLIC "-//W3C//DTD SVG 1.1//EN" "http://www.w3.org/Graphics/SVG/1.1/DTD/svg11.dtd">
<svg width="100%" height="100%" viewBox="0 0 31 31" version="1.1" xmlns="http://www.w3.org/2000/svg" xmlns:xlink="http://www.w3.org/1999/xlink" xml:space="preserve" xmlns:serif="http://www.serif.com/" style="fill-rule:evenodd;clip-rule:evenodd;stroke-linejoin:round;stroke-miterlimit:2;">
    <g transform="matrix(1,0,0,1,-395.222,-163.971)">
        <g transform="matrix(0.826995,0,0,0.826995,150.432,31.0327)">
            <path d="M333.252,170.061C333.252,164.921 329.079,160.748 323.939,160.748L305.313,160.748C300.173,160.748 296,164.921 296,170.061L296,188.687C296,193.827 300.173,198 305.313,198L323.939,198C329.079,198 333.252,193.827 333.252,188.687L333.252,170.061Z" style="fill:rgb(236,229,216);"/>
        </g>
        <g id="envelope.svg" transform="matrix(1,0,0,1,410.626,179.374)">
            <g transform="matrix(1,0,0,1,-8,-8)">
                <path d="M0,4C-0,2.903 0.903,2 2,2L14,2C15.097,2 16,2.903 16,4L16,12C16,13.097 15.097,14 14,14L2,14C0.903,14 0,13.097 0,12L0,4ZM2,3C1.451,3 1,3.451 1,4L1,4.217L8,8.417L15,4.217L15,4C15,3.451 14.549,3 14,3L2,3ZM15,5.383L10.292,8.208L15,11.105L15,5.383ZM14.966,12.259L9.326,8.788L8,9.583L6.674,8.788L1.034,12.258C1.15,12.694 1.549,13 2,13L14,13C14.451,13 14.849,12.695 14.966,12.259ZM1,11.105L5.708,8.208L1,5.383L1,11.105Z" style="fill-rule:nonzero;"/>
            </g>
        </g>
    </g>
</svg>
