<?xml version="1.0" encoding="UTF-8" standalone="no"?>
<!DOCTYPE svg PUBLIC "-//W3C//DTD SVG 1.1//EN" "http://www.w3.org/Graphics/SVG/1.1/DTD/svg11.dtd">
<svg width="100%" height="100%" viewBox="0 0 31 31" version="1.1" xmlns="http://www.w3.org/2000/svg" xmlns:xlink="http://www.w3.org/1999/xlink" xml:space="preserve" xmlns:serif="http://www.serif.com/" style="fill-rule:evenodd;clip-rule:evenodd;stroke-linejoin:round;stroke-miterlimit:2;">
    <g transform="matrix(1,0,0,1,-344.222,-163.971)">
        <g transform="matrix(0.826995,0,0,0.826995,99.432,31.0327)">
            <path d="M333.252,170.061C333.252,164.921 329.079,160.748 323.939,160.748L305.313,160.748C300.173,160.748 296,164.921 296,170.061L296,188.687C296,193.827 300.173,198 305.313,198L323.939,198C329.079,198 333.252,193.827 333.252,188.687L333.252,170.061Z" style="fill:rgb(236,229,216);"/>
        </g>
        <g id="linkedin.svg" transform="matrix(1,0,0,1,359.626,179.374)">
            <g transform="matrix(1,0,0,1,-8,-8)">
                <path d="M0,1.146C0,0.513 0.526,0 1.175,0L14.825,0C15.474,0 16,0.513 16,1.146L16,14.854C16,15.487 15.474,16 14.825,16L1.175,16C0.526,16 0,15.487 0,14.854L0,1.146ZM4.943,13.394L4.943,6.169L2.542,6.169L2.542,13.394L4.943,13.394ZM3.743,5.182C4.58,5.182 5.101,4.628 5.101,3.934C5.086,3.225 4.581,2.686 3.759,2.686C2.937,2.686 2.4,3.226 2.4,3.934C2.4,4.628 2.921,5.182 3.727,5.182L3.743,5.182ZM8.651,13.394L8.651,9.359C8.651,9.143 8.667,8.927 8.731,8.773C8.904,8.342 9.299,7.895 9.963,7.895C10.832,7.895 11.179,8.557 11.179,9.529L11.179,13.394L13.58,13.394L13.58,9.25C13.58,7.03 12.396,5.998 10.816,5.998C9.542,5.998 8.971,6.698 8.651,7.191L8.651,7.216L8.635,7.216C8.64,7.208 8.646,7.199 8.651,7.191L8.651,6.169L6.251,6.169C6.281,6.847 6.251,13.394 6.251,13.394L8.651,13.394Z" style="fill-rule:nonzero;"/>
            </g>
        </g>
    </g>
</svg>
