<?xml version="1.0" encoding="UTF-8" standalone="no"?>
<!DOCTYPE svg PUBLIC "-//W3C//DTD SVG 1.1//EN" "http://www.w3.org/Graphics/SVG/1.1/DTD/svg11.dtd">
<svg width="100%" height="100%" viewBox="0 0 63 74" version="1.1" xmlns="http://www.w3.org/2000/svg" xmlns:xlink="http://www.w3.org/1999/xlink" xml:space="preserve" xmlns:serif="http://www.serif.com/" style="fill-rule:evenodd;clip-rule:evenodd;stroke-linecap:round;stroke-linejoin:round;stroke-miterlimit:1.5;">
    <g transform="matrix(1,0,0,1,-777.452,-127.297)">
        <g id="Bunny" transform="matrix(0.902299,0,0,0.902299,187.592,-51.1111)">
            <path id="Bodyt" d="M697.532,216.153L705.674,202.049C708.06,197.917 713.353,196.498 717.486,198.884C721.619,201.271 723.037,206.563 720.651,210.696L710.837,227.695C712.953,231.456 714.161,235.798 714.161,240.42C714.161,244.464 713.236,248.294 711.586,251.709C718.338,256.141 722.563,262.46 722.563,269.47C722.563,269.47 722.563,269.471 722.563,269.471C722.562,269.967 722.16,270.369 721.665,270.369C714.25,270.369 662.023,270.369 654.625,270.369C654.388,270.369 654.16,270.275 653.992,270.108C653.825,269.94 653.73,269.712 653.73,269.475C653.731,269.473 653.731,269.472 653.731,269.47C653.731,262.46 657.956,256.141 664.707,251.709C663.058,248.294 662.133,244.464 662.133,240.42C662.133,236.115 663.181,232.054 665.034,228.477L654.889,210.905C652.503,206.772 653.921,201.48 658.054,199.094C662.187,196.708 667.479,198.126 669.865,202.259L678.053,216.44C681.156,215.13 684.568,214.406 688.147,214.406C691.455,214.406 694.619,215.024 697.532,216.153Z" style="fill:rgb(218,167,73);"/>
            <path id="Paws" d="M670.78,261.722C675.552,261.722 679.426,265.597 679.426,270.369C679.426,275.141 675.552,279.016 670.78,279.016C666.007,279.016 662.133,275.141 662.133,270.369C662.133,265.597 666.007,261.722 670.78,261.722ZM705.514,261.722C710.286,261.722 714.161,265.597 714.161,270.369C714.161,275.141 710.286,279.016 705.514,279.016C700.742,279.016 696.867,275.141 696.867,270.369C696.867,265.597 700.742,261.722 705.514,261.722Z" style="fill:rgb(222,205,161);"/>
            <g id="Mouth" transform="matrix(0.536734,0,0,0.536734,337.398,134.252)">
                <path d="M644.839,211.042C650.3,210.523 653.486,202.396 653.486,202.396C653.486,202.396 656.888,210.093 662.133,211.042" style="fill:none;stroke:black;stroke-width:4.13px;"/>
            </g>
            <path id="Eyes" d="M682.144,234.984C683.644,234.984 684.862,236.201 684.862,237.702C684.862,239.202 683.644,240.42 682.144,240.42C680.644,240.42 679.426,239.202 679.426,237.702C679.426,236.201 680.644,234.984 682.144,234.984ZM694.144,234.984C695.644,234.984 696.862,236.201 696.862,237.702C696.862,239.202 695.644,240.42 694.144,240.42C692.644,240.42 691.426,239.202 691.426,237.702C691.426,236.201 692.644,234.984 694.144,234.984Z"/>
        </g>
    </g>
</svg>
